<svg width="12" height="8" viewBox="0 0 12 8" fill="none" xmlns="http://www.w3.org/2000/svg">
<path d="M6.33902 6.78438L10.8702 2.4169C10.9751 2.31589 11.0344 2.17956 11.0371 2.03308C11.0398 1.88661 10.9855 1.74819 10.8844 1.64338L10.5629 1.30969C10.3534 1.09255 10.0064 1.08616 9.78937 1.29545L5.98435 4.96292L2.31281 1.15368C2.21171 1.04887 2.07547 0.989527 1.92907 0.986833C1.78251 0.984135 1.64417 1.03843 1.53921 1.13944L1.20567 1.46108C1.10079 1.56217 1.04152 1.69842 1.03883 1.8449C1.03613 1.99137 1.09034 2.12979 1.19143 2.2346L5.56281 6.77009C5.66423 6.87514 5.80113 6.93434 5.94777 6.93671C6.09498 6.93975 6.23388 6.88563 6.33902 6.78438Z" fill="white"/>
</svg>
