<svg width="21" height="20" viewBox="0 0 21 20" fill="none" xmlns="http://www.w3.org/2000/svg">
<path d="M19.8899 18.6993L14.0798 12.8893C15.3609 11.3087 15.9868 9.29675 15.8282 7.26832C15.6697 5.23988 14.7389 3.34961 13.2278 1.98722C11.7166 0.624827 9.74026 -0.105816 7.7063 -0.0540682C5.67234 -0.00232052 3.73581 0.827873 2.2959 2.26534C0.855983 3.70282 0.0224801 5.63798 -0.0327178 7.67185C-0.0879158 9.70571 0.639439 11.6832 1.99926 13.1967C3.35909 14.7101 5.24772 15.6442 7.27588 15.8061C9.30403 15.9681 11.3171 15.3458 12.8999 14.0673L18.7098 19.8773C18.7486 19.9161 18.7946 19.9468 18.8452 19.9678C18.8958 19.9888 18.9501 19.9996 19.0049 19.9996C19.0597 19.9996 19.1139 19.9888 19.1645 19.9678C19.2152 19.9468 19.2612 19.9161 19.2999 19.8773L19.8899 19.2883C19.9669 19.2097 20.01 19.1039 20.01 18.9938C20.01 18.8837 19.9669 18.778 19.8899 18.6993V18.6993ZM7.92993 14.1663C6.6938 14.1663 5.48532 13.7998 4.45752 13.113C3.42971 12.4263 2.62868 11.4501 2.15564 10.3081C1.68259 9.16607 1.55877 7.9094 1.79992 6.69702C2.04108 5.48464 2.63642 4.371 3.51049 3.49692C4.38457 2.62284 5.49819 2.02759 6.71057 1.78643C7.92295 1.54527 9.17961 1.66904 10.3217 2.14209C11.4637 2.61514 12.4398 3.41622 13.1266 4.44402C13.8133 5.47183 14.1799 6.6802 14.1799 7.91634C14.1778 9.57292 13.5184 11.161 12.3467 12.332C11.1749 13.503 9.58651 14.1613 7.92993 14.1623V14.1663Z" fill="white"/>
</svg>
